<svg width="32" height="32" viewBox="0 0 32 32" fill="none" xmlns="http://www.w3.org/2000/svg">
<path d="M11.9998 29.3333C12.7362 29.3333 13.3332 28.7364 13.3332 28C13.3332 27.2636 12.7362 26.6667 11.9998 26.6667C11.2635 26.6667 10.6665 27.2636 10.6665 28C10.6665 28.7364 11.2635 29.3333 11.9998 29.3333Z" stroke="white" stroke-width="2" stroke-linecap="round" stroke-linejoin="round"/>
<path d="M26.6668 29.3333C27.4032 29.3333 28.0002 28.7364 28.0002 28C28.0002 27.2636 27.4032 26.6667 26.6668 26.6667C25.9304 26.6667 25.3335 27.2636 25.3335 28C25.3335 28.7364 25.9304 29.3333 26.6668 29.3333Z" stroke="white" stroke-width="2" stroke-linecap="round" stroke-linejoin="round"/>
<path d="M1.3335 1.33334H6.66683L10.2402 19.1867C10.3621 19.8005 10.696 20.352 11.1836 20.7444C11.6711 21.1369 12.2811 21.3453 12.9068 21.3333H25.8668C26.4926 21.3453 27.1026 21.1369 27.5901 20.7444C28.0776 20.352 28.4116 19.8005 28.5335 19.1867L30.6668 8.00001H8.00016" stroke="white" stroke-width="2" stroke-linecap="round" stroke-linejoin="round"/>
</svg>
