<svg width="32" height="32" fill="none" xmlns="http://www.w3.org/2000/svg"><path d="M28.842 21.934h-18.61l.935-1.903 15.525-.028c.525 0 .975-.375 1.068-.894l2.15-12.034a1.086 1.086 0 0 0-1.065-1.278L9.095 5.73l-.169-.793a1.11 1.11 0 0 0-1.081-.875H3.017a1.103 1.103 0 1 0 0 2.206H6.95l.738 3.506 1.815 8.79-2.337 3.816a1.092 1.092 0 0 0-.094 1.15 1.1 1.1 0 0 0 .984.607h1.963a3.209 3.209 0 0 0 2.563 5.134 3.209 3.209 0 0 0 3.206-3.206c0-.697-.232-1.375-.644-1.928h5.034a3.209 3.209 0 0 0 2.563 5.134 3.209 3.209 0 0 0 2.562-5.134h3.54c.607 0 1.104-.494 1.104-1.104a1.107 1.107 0 0 0-1.106-1.1ZM9.554 7.906l17.994.06-1.763 9.868-14.134.025-2.097-9.953Zm3.028 19.147a.99.99 0 0 1-.987-.987.99.99 0 0 1 .987-.988.99.99 0 0 1 .699 1.686.988.988 0 0 1-.699.29Zm10.16 0a.99.99 0 0 1-.988-.987.99.99 0 0 1 .988-.988.99.99 0 0 1 .698 1.686.988.988 0 0 1-.698.29Z" fill="#fff"/></svg>