<?xml version="1.0" encoding="UTF-8"?>
<svg id="Layer_2" data-name="Layer 2" xmlns="http://www.w3.org/2000/svg" viewBox="0 0 332.52 280">
  <defs>
    <style>
      .cls-1 {
        fill: #8c9091;
      }
    </style>
  </defs>
  <g id="Layer_1-2" data-name="Layer 1">
    <g>
      <path class="cls-1" d="m283.13,101.83l-35.92.02h-.49c-6.68.22-12.12,5.84-12.12,12.52v104.69c0,6.9,5.62,12.51,12.52,12.51s12.52-5.61,12.52-12.51v-16.79h23.49c27.24,0,49.39-22.53,49.39-50.22s-22.16-50.22-49.39-50.22Zm0,75.39h-23.49v-50.34h23.49c13.42,0,24.34,11.29,24.34,25.16s-10.92,25.17-24.34,25.17Z"/>
      <path class="cls-1" d="m204.28,183.9c-4.41,0-8.46,2.29-10.73,6.04l-.13-.05-.66,1.54c-3.91,9.12-13.04,15-23.24,15-13.88,0-25.17-10.91-25.17-24.33v-30.86c0-13.42,11.29-24.34,25.17-24.34,10.2,0,19.32,5.9,23.25,15.02l.7,1.51.08-.03c2.27,3.74,6.32,6.03,10.73,6.03,6.93,0,12.57-5.64,12.57-12.57,0-2.37-.69-4.74-1.88-6.57-8.27-17.27-26.1-28.44-45.45-28.44-27.69,0-50.22,22.16-50.22,49.39v30.86c0,27.23,22.53,49.39,50.22,49.39,19.35,0,37.17-11.13,45.35-28.25,1.29-2.02,1.98-4.36,1.98-6.76,0-6.93-5.64-12.57-12.57-12.57Z"/>
      <g>
        <path class="cls-1" d="m14.35,270.32c-1.64,1.77-3.83,2.68-6.21,2.68s-4.38-.85-5.95-2.42c-2.19-2.18-2.19-4.47-2.19-9.41s0-7.23,2.19-9.42c1.57-1.57,3.63-2.42,5.95-2.42,4.44,0,7.45,2.87,8.14,6.96h-2.48c-.66-2.94-2.75-4.74-5.66-4.74-1.53,0-3.01.62-4.02,1.67-1.47,1.5-1.64,3.07-1.64,7.95s.16,6.47,1.64,7.97c1.01,1.05,2.49,1.64,4.02,1.64,1.7,0,3.33-.69,4.41-1.99.95-1.14,1.31-2.42,1.31-4.22v-1.76h-5.72v-2.19h8.2v3.7c0,2.68-.55,4.48-1.99,6.01Z"/>
        <path class="cls-1" d="m29.62,259.8c-.88-.88-1.54-1.17-2.78-1.17-2.35,0-3.86,1.86-3.86,4.31v9.88h-2.35v-16.08h2.35v1.96c.89-1.34,2.65-2.15,4.51-2.15,1.54,0,2.71.35,3.86,1.5l-1.73,1.77Z"/>
        <path class="cls-1" d="m43.48,272.81v-1.8c-1.15,1.31-2.75,2-4.54,2s-3.17-.52-4.15-1.5c-1.14-1.12-1.63-2.65-1.63-4.51v-10.27h2.35v9.9c0,2.84,1.5,4.29,3.92,4.29s4.02-1.47,4.02-4.29v-9.9h2.35v16.08h-2.32Z"/>
        <path class="cls-1" d="m61.44,271.6c-.85.85-2.29,1.41-3.92,1.41-1.76,0-3.23-.43-4.54-2.09v9.08h-2.35v-23.27h2.35v1.89c1.31-1.7,2.78-2.09,4.54-2.09,1.64,0,3.07.55,3.92,1.4,1.64,1.64,1.96,4.31,1.96,6.83s-.32,5.2-1.96,6.83Zm-4.41-12.98c-3.5,0-4.05,3.01-4.05,6.15s.56,6.15,4.05,6.15,4.02-3.01,4.02-6.15-.53-6.15-4.02-6.15Z"/>
        <path class="cls-1" d="m77.68,271.18c-1.11,1.11-2.65,1.83-4.61,1.83s-3.49-.71-4.61-1.83c-1.64-1.67-1.96-3.92-1.96-6.41s.33-4.74,1.96-6.41c1.11-1.11,2.65-1.83,4.61-1.83s3.5.72,4.61,1.83c1.64,1.67,1.96,3.92,1.96,6.41s-.32,4.74-1.96,6.41Zm-1.67-11.38c-.75-.74-1.8-1.17-2.95-1.17s-2.15.43-2.91,1.17c-1.18,1.18-1.31,3.17-1.31,4.97s.13,3.79,1.31,4.97c.75.75,1.77,1.18,2.91,1.18s2.19-.43,2.95-1.18c1.18-1.18,1.27-3.18,1.27-4.97s-.1-3.79-1.27-4.97Z"/>
        <path class="cls-1" d="m98.35,273.01c-2.29,0-4.38-.85-5.95-2.42-2.19-2.18-2.19-4.47-2.19-9.41s0-7.23,2.19-9.42c1.57-1.57,3.66-2.42,5.95-2.42,4.18,0,7.29,2.55,8.07,6.93h-2.55c-.62-2.84-2.62-4.71-5.52-4.71-1.54,0-3.01.59-4.02,1.64-1.47,1.5-1.63,3.1-1.63,7.98s.16,6.47,1.63,7.97c1.01,1.05,2.49,1.64,4.02,1.64,2.91,0,4.97-1.86,5.59-4.71h2.49c-.75,4.39-3.92,6.93-8.07,6.93Z"/>
        <path class="cls-1" d="m120.75,271.18c-1.11,1.11-2.65,1.83-4.61,1.83s-3.49-.71-4.61-1.83c-1.64-1.67-1.96-3.92-1.96-6.41s.33-4.74,1.96-6.41c1.11-1.11,2.65-1.83,4.61-1.83s3.5.72,4.61,1.83c1.63,1.67,1.96,3.92,1.96,6.41s-.33,4.74-1.96,6.41Zm-1.67-11.38c-.75-.74-1.8-1.17-2.95-1.17s-2.16.43-2.91,1.17c-1.17,1.18-1.31,3.17-1.31,4.97s.13,3.79,1.31,4.97c.75.75,1.77,1.18,2.91,1.18s2.19-.43,2.95-1.18c1.17-1.18,1.27-3.18,1.27-4.97s-.1-3.79-1.27-4.97Z"/>
        <path class="cls-1" d="m135.66,259.8c-.88-.88-1.53-1.17-2.77-1.17-2.36,0-3.86,1.86-3.86,4.31v9.88h-2.35v-16.08h2.35v1.96c.88-1.34,2.65-2.15,4.51-2.15,1.54,0,2.71.35,3.86,1.5l-1.74,1.77Z"/>
        <path class="cls-1" d="m150.18,271.6c-.85.85-2.29,1.41-3.92,1.41-1.76,0-3.24-.43-4.54-2.09v9.08h-2.35v-23.27h2.35v1.89c1.31-1.7,2.78-2.09,4.54-2.09,1.64,0,3.07.55,3.92,1.4,1.63,1.64,1.96,4.31,1.96,6.83s-.33,5.2-1.96,6.83Zm-4.41-12.98c-3.5,0-4.05,3.01-4.05,6.15s.56,6.15,4.05,6.15,4.02-3.01,4.02-6.15-.52-6.15-4.02-6.15Z"/>
        <path class="cls-1" d="m166.43,271.18c-1.11,1.11-2.65,1.83-4.61,1.83s-3.5-.71-4.61-1.83c-1.64-1.67-1.96-3.92-1.96-6.41s.33-4.74,1.96-6.41c1.11-1.11,2.65-1.83,4.61-1.83s3.5.72,4.61,1.83c1.63,1.67,1.96,3.92,1.96,6.41s-.33,4.74-1.96,6.41Zm-1.67-11.38c-.75-.74-1.8-1.17-2.94-1.17s-2.15.43-2.91,1.17c-1.17,1.18-1.3,3.17-1.3,4.97s.13,3.79,1.3,4.97c.75.75,1.77,1.18,2.91,1.18s2.19-.43,2.94-1.18c1.18-1.18,1.28-3.18,1.28-4.97s-.1-3.79-1.28-4.97Z"/>
        <path class="cls-1" d="m181.34,259.8c-.88-.88-1.54-1.17-2.78-1.17-2.36,0-3.86,1.86-3.86,4.31v9.88h-2.36v-16.08h2.36v1.96c.89-1.34,2.65-2.15,4.51-2.15,1.54,0,2.72.35,3.86,1.5l-1.73,1.77Z"/>
        <path class="cls-1" d="m193.83,272.81v-1.53c-1.31,1.3-2.49,1.73-4.64,1.73s-3.53-.43-4.55-1.47c-.78-.79-1.21-2-1.21-3.27,0-2.81,1.96-4.64,5.56-4.64h4.84v-1.53c0-2.36-1.18-3.53-4.12-3.53-2.06,0-3.11.49-4.05,1.82l-1.6-1.46c1.44-1.86,3.07-2.39,5.69-2.39,4.32,0,6.44,1.86,6.44,5.36v10.92h-2.35Zm0-7.42h-4.51c-2.42,0-3.6.98-3.6,2.84s1.14,2.75,3.69,2.75c1.38,0,2.59-.1,3.6-1.08.55-.53.82-1.44.82-2.78v-1.73Z"/>
        <path class="cls-1" d="m205.34,272.81c-2.75,0-4.12-1.93-4.12-4.32v-9.87h-2.03v-1.8h2.03v-5.04h2.35v5.04h3.44v1.8h-3.44v9.81c0,1.47.69,2.35,2.19,2.35h1.24v2.03h-1.67Z"/>
        <path class="cls-1" d="m210.47,252.15v-2.65h2.65v2.65h-2.65Zm.13,20.66v-16.08h2.35v16.08h-2.35Z"/>
        <path class="cls-1" d="m223.19,272.81h-2.09l-5.88-16.08h2.55l4.38,12.91,4.41-12.91h2.55l-5.92,16.08Z"/>
        <path class="cls-1" d="m241.34,271.18c-1.11,1.11-2.65,1.83-4.61,1.83s-3.5-.71-4.61-1.83c-1.64-1.67-1.96-3.92-1.96-6.41s.32-4.74,1.96-6.41c1.11-1.11,2.65-1.83,4.61-1.83s3.5.72,4.61,1.83c1.64,1.67,1.96,3.92,1.96,6.41s-.33,4.74-1.96,6.41Zm-1.67-11.38c-.75-.74-1.8-1.17-2.94-1.17s-2.16.43-2.91,1.17c-1.18,1.18-1.31,3.17-1.31,4.97s.13,3.79,1.31,4.97c.75.75,1.76,1.18,2.91,1.18s2.19-.43,2.94-1.18c1.18-1.18,1.27-3.18,1.27-4.97s-.1-3.79-1.27-4.97Z"/>
        <path class="cls-1" d="m263.11,264.05h-4.48v8.76h-4.55v-23.28h9.02c4.81,0,7.68,3.31,7.68,7.26s-2.88,7.26-7.68,7.26Zm-.23-10.46h-4.25v6.38h4.25c2.06,0,3.37-1.28,3.37-3.17s-1.31-3.2-3.37-3.2Z"/>
        <path class="cls-1" d="m276.55,265.61c0,2.19,1.34,3.8,3.73,3.8,1.86,0,2.78-.53,3.86-1.61l2.58,2.52c-1.73,1.74-3.4,2.68-6.48,2.68-4.02,0-7.88-1.83-7.88-8.73,0-5.56,3.01-8.7,7.42-8.7,4.73,0,7.42,3.47,7.42,8.14v1.89h-10.66Zm6.08-4.74c-.46-1.01-1.4-1.76-2.84-1.76s-2.39.75-2.85,1.76c-.26.62-.36,1.08-.39,1.83h6.48c-.03-.75-.13-1.21-.4-1.83Zm-1.7-7.81h-2.84l2.09-5.56h4.48l-3.73,5.56Z"/>
        <path class="cls-1" d="m299.31,260.42c-.66-.65-1.21-1.02-2.26-1.02-1.31,0-2.74.98-2.74,3.13v10.27h-4.25v-17.04h4.15v1.64c.81-.98,2.45-1.83,4.28-1.83,1.67,0,2.84.43,4.02,1.61l-3.2,3.23Z"/>
        <path class="cls-1" d="m306.18,265.61c0,2.19,1.34,3.8,3.72,3.8,1.86,0,2.78-.53,3.86-1.61l2.58,2.52c-1.73,1.74-3.4,2.68-6.47,2.68-4.02,0-7.88-1.83-7.88-8.73,0-5.56,3.01-8.7,7.42-8.7,4.74,0,7.42,3.47,7.42,8.14v1.89h-10.66Zm6.08-4.74c-.46-1.01-1.41-1.76-2.85-1.76s-2.39.75-2.85,1.76c-.26.62-.36,1.08-.39,1.83h6.47c-.03-.75-.13-1.21-.39-1.83Z"/>
        <path class="cls-1" d="m318.5,272.81v-3.24l7.55-9.97h-7.13v-3.83h12.55v3.24l-7.65,9.97h7.65v3.83h-12.98Z"/>
      </g>
      <g>
        <path class="cls-1" d="m110.11,72.62c-9.01,0-16.32,7.31-16.32,16.32s7.31,16.32,16.32,16.32,16.32-7.31,16.32-16.32-7.3-16.32-16.32-16.32Z"/>
        <path class="cls-1" d="m161.37,40.37c-11.27,0-20.4,9.14-20.4,20.41s9.13,20.4,20.4,20.4,20.4-9.13,20.4-20.4-9.13-20.41-20.4-20.41Z"/>
        <path class="cls-1" d="m200.11,38.74c0-13.55,10.98-24.53,24.53-24.53s24.53,10.98,24.53,24.53-10.98,24.54-24.53,24.54-24.53-10.98-24.53-24.54Z"/>
        <path class="cls-1" d="m270.98,30.34c0-16.76,13.58-30.34,30.34-30.34s30.33,13.58,30.33,30.34-13.58,30.33-30.33,30.33-30.34-13.58-30.34-30.33Z"/>
      </g>
      <path class="cls-1" d="m101.75,182.06s0-.09,0-.13h0l-.02-6.46-.12-1.72c-.97-5.38-5.56-9.61-11.13-10.2l-30.69-.07-1.72.1c-5.94,1.02-10.32,6.27-10.32,12.38s4.77,11.7,11.19,12.4l16.92.08c-.12.43-.24.86-.39,1.28l-.67,1.55c-3.91,9.09-13,14.96-23.18,14.96-13.84,0-25.09-10.89-25.09-24.27v-30.55c0-13.25,11.04-24.03,24.68-24.24.06,0,.33,0,.4,0,.01,0,.03,0,.04,0,1.05.04,3.6-.14,6.67.72,6.63,1.86,13.71,6.52,20.58-1.71,5.72-6.85,2.32-15.9-5.66-19.58-9.87-4.55-21.77-4.41-21.83-4.41-27.51.11-49.86,22.15-49.86,49.23v30.55c0,27.15,22.46,49.24,50.07,49.24,19.3,0,37.06-11.09,45.21-28.17.6-.93,1.08-1.96,1.37-2.91,2.24-5.5,3.42-11.27,3.54-17.17h.02s0-.9,0-.9Z"/>
    </g>
  </g>
</svg>