<svg width="30" height="29" viewBox="0 0 30 29" fill="none" xmlns="http://www.w3.org/2000/svg">
<g clip-path="url(#clip0_41_3252)">
<path d="M28.0017 18.8922L25.9696 9.88727C25.9136 9.5509 25.6337 9.33032 25.2922 9.33032H13.4411C13.0996 9.33032 12.8197 9.5509 12.7638 9.83213L10.2782 18.8922C9.20339 19.1679 8.41406 20.1715 8.41406 21.3406V23.7283C8.41406 25.0076 9.37133 26.0057 10.6141 26.2318V26.8439C10.6141 27.0645 10.6701 27.2354 10.7261 27.456H9.14741C8.74995 27.456 8.41406 27.7924 8.41406 28.1784C8.41406 28.5644 8.74995 28.9008 9.14741 28.9008H29.2388C29.6363 28.9008 29.9722 28.5699 29.9722 28.1784C29.9722 27.7869 29.6363 27.456 29.2388 27.456H27.6602C27.7162 27.2906 27.7722 27.0645 27.7722 26.8439V26.2318C29.0149 26.0664 29.9722 25.0076 29.9722 23.7283V21.3406C29.8602 20.1715 29.0709 19.1734 27.9961 18.8922H28.0017ZM14.0065 10.7199H18.4626V12.3301H17.6173C17.2198 12.3301 16.8839 12.6665 16.8839 13.0525C16.8839 13.4385 17.2254 13.7749 17.6173 13.7749H20.6626C21.0601 13.7749 21.396 13.4385 21.396 13.0525C21.396 12.6665 21.0545 12.3301 20.6626 12.3301H19.8173V10.7199H24.6708L26.535 18.7819H11.7449L14.0009 10.7199H14.0065ZM13.2172 26.7888C13.2172 27.1252 12.9373 27.4009 12.5958 27.4009C12.2543 27.4009 11.9744 27.1252 11.9744 26.7888V26.1767H13.2172V26.7888ZM14.5159 27.456C14.5719 27.2906 14.6279 27.0645 14.6279 26.8439V26.2318H23.6576V26.8439C23.6576 27.0645 23.7136 27.2354 23.7695 27.456H14.5103H14.5159ZM26.2551 26.7888C26.2551 27.1252 25.9752 27.4009 25.6337 27.4009C25.3538 27.4009 25.0683 27.1252 25.0683 26.7888V26.1767H26.2551V26.7888ZM28.4551 23.7338C28.4551 24.3459 27.9457 24.8477 27.3243 24.8477H10.8996C10.2782 24.8477 9.76879 24.3459 9.76879 23.7338V21.3461C9.76879 20.734 10.2782 20.2322 10.8996 20.2322H27.3243C27.9457 20.2322 28.4551 20.734 28.4551 21.3461V23.7338Z" fill="#424242"/>
<path d="M12.1424 20.5023C11.0116 20.5023 10.1104 21.3901 10.1104 22.504C10.1104 23.6179 11.0116 24.5057 12.1424 24.5057C13.2733 24.5057 14.1745 23.6179 14.1745 22.504C14.1745 21.3901 13.2733 20.5023 12.1424 20.5023ZM12.1424 23.1161C11.8066 23.1161 11.5211 22.8404 11.5211 22.504C11.5211 22.1677 11.801 21.8919 12.1424 21.8919C12.4839 21.8919 12.7638 22.1677 12.7638 22.504C12.7638 22.8404 12.4839 23.1161 12.1424 23.1161Z" fill="#424242"/>
<path d="M26.1434 20.5023C25.0126 20.5023 24.1113 21.3901 24.1113 22.504C24.1113 23.6179 25.0126 24.5057 26.1434 24.5057C27.2742 24.5057 28.1755 23.6179 28.1755 22.504C28.1755 21.3901 27.2742 20.5023 26.1434 20.5023ZM26.1434 23.1161C25.8019 23.1161 25.522 22.8404 25.522 22.504C25.522 22.1677 25.8019 21.8919 26.1434 21.8919C26.4849 21.8919 26.7648 22.1677 26.7648 22.504C26.7648 22.8404 26.4849 23.1161 26.1434 23.1161Z" fill="#424242"/>
<path d="M23.0919 21.7817H15.1874C14.79 21.7817 14.4541 22.1181 14.4541 22.5041C14.4541 22.8901 14.79 23.2265 15.1874 23.2265H23.0303C23.4278 23.2265 23.7637 22.8901 23.7637 22.5041C23.7637 22.1181 23.4838 21.7817 23.0863 21.7817H23.0919Z" fill="#424242"/>
<path d="M4.0418 7.92961C4.42806 7.92961 4.74156 7.62081 4.74156 7.24032C4.74156 6.85983 4.42806 6.55103 4.0418 6.55103H0.699757C0.313491 6.55103 0 6.85983 0 7.24032C0 7.62081 0.313491 7.92961 0.699757 7.92961H1.67382V17.0283H1.51707C1.13081 17.0283 0.817317 17.3371 0.817317 17.7176C0.817317 18.0981 1.13081 18.4069 1.51707 18.4069H1.67382V27.6214H0.699757C0.313491 27.6214 0 27.9302 0 28.3107C0 28.6912 0.313491 29 0.699757 29H4.0418C4.42806 29 4.74156 28.6912 4.74156 28.3107C4.74156 27.9302 4.42806 27.6214 4.0418 27.6214H3.07333V18.4069H3.23008C3.61635 18.4069 3.92984 18.0981 3.92984 17.7176C3.92984 17.3371 3.61635 17.0283 3.23008 17.0283H3.07333V7.92961H4.0418Z" fill="#424242"/>
<path d="M29.2999 0C28.9136 0 28.6001 0.308804 28.6001 0.689295V1.64879H19.8056V1.18007C19.8056 0.799582 19.4921 0.490778 19.1058 0.490778C18.7196 0.490778 18.4061 0.799582 18.4061 1.18007V1.64879H8.60948V0.689295C8.60948 0.308804 8.29598 0 7.90972 0C7.52345 0 7.20996 0.308804 7.20996 0.689295V3.98137C7.20996 4.36186 7.52345 4.67066 7.90972 4.67066C8.29598 4.67066 8.60948 4.36186 8.60948 3.98137V3.02187H18.4061V3.49059C18.4061 3.87108 18.7196 4.17988 19.1058 4.17988C19.4921 4.17988 19.8056 3.87108 19.8056 3.49059V3.02187H28.6001V3.98137C28.6001 4.36186 28.9136 4.67066 29.2999 4.67066C29.6862 4.67066 29.9997 4.36186 29.9997 3.98137V0.689295C29.9997 0.308804 29.6862 0 29.2999 0Z" fill="#424242"/>
</g>
<defs>
<clipPath id="clip0_41_3252">
<rect width="30" height="29" fill="white"/>
</clipPath>
</defs>
</svg>
