<svg width="33" height="28" viewBox="0 0 33 28" fill="none" xmlns="http://www.w3.org/2000/svg">
<g clip-path="url(#clip0_41_3241)">
<path d="M33 22.858C33 17.1016 33 17.4804 33 17.4271C33 17.3204 32.9455 17.1603 32.8366 17.107C32.8366 17.107 28.0056 11.676 27.9511 11.6227C27.8422 11.516 27.7333 11.4626 27.5645 11.4626C27.51 11.4626 27.7278 11.4626 23.3925 11.4626V1.34231C23.3925 0.963527 23.0602 0.643433 22.679 0.643433H0.713484C0.326787 0.643433 0 0.968862 0 1.34231V22.858C0 23.2368 0.326787 23.5569 0.713484 23.5569H3.13171C2.63608 24.3625 2.63608 25.3868 3.13171 26.2457H0.713484C0.326787 26.2457 0 26.5658 0 26.9446C0 27.3233 0.326787 27.6434 0.713484 27.6434H32.2865C32.6732 27.6434 33 27.318 33 26.9446C33 26.5711 32.6732 26.2457 32.2865 26.2457H29.8683C30.3639 25.4401 30.3639 24.4158 29.8683 23.5569H32.2865C32.6732 23.5035 33 23.1781 33 22.858ZM28.169 13.874L30.7506 16.7762H28.169V13.874ZM25.1462 23.5035C24.6506 24.3091 24.6506 25.3334 25.1462 26.1923H7.90824C8.40386 25.3868 8.40386 24.3625 7.90824 23.5035H25.1517H25.1462ZM22.02 1.98783V16.7815H1.42697V1.98783H22.02ZM1.42697 18.1259H22.02V22.1591H1.42697V18.1259ZM4.17198 24.8479C4.17198 24.0957 4.77653 23.5035 5.54448 23.5035C6.31243 23.5035 6.91698 24.0957 6.91698 24.8479C6.91698 25.6002 6.31243 26.1923 5.54448 26.1923C4.77653 26.1923 4.17198 25.6002 4.17198 24.8479ZM28.8825 24.8479C28.8825 25.6002 28.2779 26.1923 27.51 26.1923C26.742 26.1923 26.1375 25.6002 26.1375 24.8479C26.1375 24.0957 26.742 23.5035 27.51 23.5035C28.2779 23.5035 28.8825 24.0957 28.8825 24.8479ZM23.3925 22.1591V12.7484H26.851V17.4804C26.851 17.8592 27.1778 18.1793 27.5645 18.1793H31.682V22.2125H23.3925V22.1591Z" fill="#424242"/>
<path d="M4.83089 14.0928C5.21759 14.0928 5.54438 13.7727 5.54438 13.3939V5.32754C5.54438 4.94876 5.21759 4.62866 4.83089 4.62866C4.4442 4.62866 4.17188 5.00744 4.17188 5.38089V13.4473C4.17188 13.7727 4.50411 14.0928 4.83089 14.0928Z" fill="#424242"/>
<path d="M8.28966 14.0928C8.67635 14.0928 9.00314 13.7727 9.00314 13.3939V5.32754C9.00314 4.94876 8.67635 4.62866 8.28966 4.62866C7.90296 4.62866 7.57617 4.95409 7.57617 5.32754V13.3939C7.57617 13.7727 7.90841 14.0928 8.28966 14.0928Z" fill="#424242"/>
<path d="M11.694 14.0928C12.0807 14.0928 12.4074 13.7727 12.4074 13.3939V5.32754C12.4074 4.94876 12.0807 4.62866 11.694 4.62866C11.3073 4.62866 10.9805 4.95409 10.9805 5.32754V13.3939C11.0349 13.7727 11.3672 14.0928 11.694 14.0928Z" fill="#424242"/>
<path d="M15.1578 14.0928C15.5445 14.0928 15.8713 13.7727 15.8713 13.3939V5.32754C15.8713 4.94876 15.5391 4.62866 15.1578 4.62866C14.7766 4.62866 14.4443 4.95409 14.4443 5.32754V13.3939C14.4443 13.7727 14.7766 14.0928 15.1578 14.0928Z" fill="#424242"/>
<path d="M18.5611 14.0928C18.9478 14.0928 19.2746 13.7727 19.2746 13.3939V5.32754C19.2746 4.94876 18.9424 4.62866 18.5611 4.62866C18.1799 4.62866 17.8477 4.95409 17.8477 5.32754V13.3939C17.9021 13.7727 18.2344 14.0928 18.5611 14.0928Z" fill="#424242"/>
</g>
<defs>
<clipPath id="clip0_41_3241">
<rect width="33" height="27" fill="white" transform="translate(0 0.643433)"/>
</clipPath>
</defs>
</svg>
